:SAMPLES-PER-SECOND 30
:FULLY-SPECIFIED
:DEGREES
441
root  -43.0186 37.3736 -29.5785 -100.069 -88.8194 140.895
RightUpLeg  -73.3612 -12.1194 16.6597
RightLeg  40.2857 -1.83908 -1.96043
RightFoot  -5.14807 0.444296 -8.82456
RightToes  0.000482159 0.542163 -0.142577
Spine  75.5261 -5.65686 5.06079
Spine1  3.55942 -0.718959 -6.98904
HEad  -40.9365 -1.41058 -0.235494
LeftShoulder1  5.92447 -23.8659 -14.6601
LeftArm  -93.3968 -60.6592 24.8528
LeftForeArm  18.2968 -29.2747 -5.34641
LeftHand  -0.25398 0.0180481 5.50724
RightShoulder  2.29561 14.1316 5.21994
RightArm  -71.9365 53.0011 -19.2798
RightForeArm  -21.7142 21.212 5.4746
RightHand  -1.65038 9.59393 -13.2147
LeftUpLeg  -71.6895 11.3551 -16.5474
LeftLeg  36.9834 3.16993 2.93007
LeftFoot  -6.14532 -0.251257 6.34784
LeftToes  1.06247e-005 4.65855e-005 -8.18501e-006
442
root  -43.035 37.3674 -29.4975 -111.312 -88.7713 151.973
RightUpLeg  -73.1931 -11.9759 16.4359
RightLeg  40.4009 -1.96008 -2.07798
RightFoot  -5.139 0.416261 -8.30232
RightToes  0.000482159 0.542163 -0.142577
Spine  75.4192 -5.60347 4.92736
Spine1  3.51866 -0.74728 -7.16316
HEad  -41.1077 -1.12974 -0.401714
LeftShoulder1  5.98765 -23.9304 -14.8538
LeftArm  -92.5485 -61.2147 23.9735
LeftForeArm  17.9309 -28.7741 -5.25129
LeftHand  -0.25398 0.0180481 5.50724
RightShoulder  2.29535 13.9496 5.37272
RightArm  -71.4114 53.9842 -18.4995
RightForeArm  -22.1931 20.6913 5.37287
RightHand  -1.78042 9.46374 -14.3127
LeftUpLeg  -71.5696 11.3938 -16.4383
LeftLeg  37.1883 3.43049 3.16091
LeftFoot  -6.27516 -0.263899 6.8129
LeftToes  1.06247e-005 4.65855e-005 -8.18501e-006
443
root  -43.0208 37.3531 -29.4011 -120.088 -88.72 160.467
RightUpLeg  -73.0144 -11.9425 16.2481
RightLeg  40.5586 -1.93873 -2.06925
RightFoot  -5.02307 0.413904 -8.09258
RightToes  0.000482159 0.542163 -0.142577
Spine  75.4478 -5.58751 4.96379
Spine1  3.41081 -0.679737 -7.19618
HEad  -41.4738 -1.16863 -0.935248
LeftShoulder1  6.15205 -24.1048 -15.349
LeftArm  -92.8928 -61.7544 24.2915
LeftForeArm  16.5773 -27.1313 -4.95928
LeftHand  -0.25398 0.0180481 5.50724
RightShoulder  2.38207 14.0823 5.81329
RightArm  -70.9107 54.5576 -19.2613
RightForeArm  -22.4403 19.322 5.08116
RightHand  -1.96195 9.78408 -15.386
LeftUpLeg  -71.3735 11.3273 -16.2149
LeftLeg  37.4513 3.68918 3.3999
LeftFoot  -6.51643 -0.249826 6.85281
LeftToes  1.06247e-005 4.65855e-005 -8.18501e-006
444
root  -42.9628 37.3294 -29.2995 -125.861 -88.7278 166.027
RightUpLeg  -72.9755 -11.9814 16.1997
RightLeg  40.6532 -1.93329 -2.07065
RightFoot  -4.87297 0.432943 -8.22204
RightToes  0.000482159 0.542163 -0.142577
Spine  75.3163 -5.61799 5.16625
Spine1  3.35654 -0.505813 -7.20391
HEad  -41.8453 -1.39454 -1.4672
LeftShoulder1  6.24734 -24.1142 -15.7155
LeftArm  -93.9892 -62.5882 26.0626
LeftForeArm  16.38 -24.5067 -4.34106
LeftHand  -0.25398 0.0180481 5.50724
RightShoulder  2.55515 14.6396 6.41626
RightArm  -70.8076 54.6489 -21.4438
RightForeArm  -22.0095 16.7594 4.51735
RightHand  -2.19398 10.9854 -15.9468
LeftUpLeg  -71.3936 11.1218 -15.9949
LeftLeg  37.8248 3.876 3.59673
LeftFoot  -6.5461 -0.237943 6.61965
LeftToes  1.06247e-005 4.65855e-005 -8.18501e-006
445
root  -42.8449 37.3042 -29.2045 -130.819 -88.7502 170.771
RightUpLeg  -72.9512 -11.9144 16.0934
RightLeg  40.632 -2.11067 -2.23179
RightFoot  -4.66709 0.456248 -8.34317
RightToes  0.000482159 0.542163 -0.142577
Spine  75.0068 -5.68585 5.46304
Spine1  3.2246 -0.299406 -7.31252
HEad  -41.913 -1.49357 -1.77701
LeftShoulder1  6.21734 -23.9333 -15.762
LeftArm  -93.2569 -63.7527 28.9117
LeftForeArm  15.755 -20.8067 -2.91394
LeftHand  -0.25398 0.0180481 5.50724
RightShoulder  2.67997 14.9627 6.89883
RightArm  -71.6057 55.1246 -23.4737
RightForeArm  -20.4697 13.3578 3.6705
RightHand  -2.27926 12.1596 -15.4818
LeftUpLeg  -71.5337 10.977 -15.9405
LeftLeg  38.1431 3.9868 3.72742
LeftFoot  -6.30264 -0.256421 6.68228
LeftToes  1.06247e-005 4.65855e-005 -8.18501e-006
446
root  -42.6645 37.3054 -29.1064 -135.548 -88.6583 174.861
RightUpLeg  -72.4154 -11.7622 15.6426
RightLeg  40.3929 -2.33013 -2.41392
RightFoot  -4.39881 0.472074 -8.25113
RightToes  0.000482159 0.542163 -0.142577
Spine  74.8011 -5.72943 5.76369
Spine1  3.01361 -0.108952 -7.37784
HEad  -41.5708 -1.39947 -2.20149
LeftShoulder1  6.24489 -23.927 -15.8766
LeftArm  -89.4159 -64.963 31.7044
LeftForeArm  11.5276 -16.6804 -0.756976
LeftHand  -0.25398 0.0180481 5.50724
RightShoulder  2.63367 14.6422 6.89897
RightArm  -72.7399 56.4141 -24.599
RightForeArm  -18.3678 9.81613 2.74502
RightHand  -2.28647 12.4158 -15.3227
LeftUpLeg  -71.1822 11.1565 -16.1021
LeftLeg  38.1041 4.03884 3.7661
LeftFoot  -6.0069 -0.300825 7.2252
LeftToes  1.06247e-005 4.65855e-005 -8.18501e-006
447
root  -42.4259 37.3676 -28.9897 -138.82 -88.375 176.826
RightUpLeg  -70.9979 -11.7526 14.9387
RightLeg  39.6659 -2.38732 -2.40746
RightFoot  -4.10561 0.489439 -8.15837
RightToes  0.000482159 0.542163 -0.142577
Spine  74.7714 -5.65725 5.95974
Spine1  2.94486 0.108518 -7.2558
HEad  -40.9195 -1.32842 -2.99398
LeftShoulder1  6.47312 -24.3649 -16.3671
LeftArm  -87.0435 -65.8541 33.6447
LeftForeArm  7.30791 -12.9779 0.434851
LeftHand  -0.25398 0.0180481 5.50724
RightShoulder  2.47014 14.0599 6.39788
RightArm  -72.9859 58.1057 -25.5906
RightForeArm  -16.807 6.34612 2.2616
RightHand  -2.60114 12.0159 -17.6931
LeftUpLeg  -69.9814 11.7325 -16.4397
LeftLeg  37.5553 4.01985 3.68306
LeftFoot  -5.63965 -0.363955 7.97685
LeftToes  1.06247e-005 4.65855e-005 -8.18501e-006
448
root  -42.1332 37.5007 -28.8616 -140.581 -87.9819 176.923
RightUpLeg  -68.9704 -11.9868 14.3404
RightLeg  38.2706 -2.3155 -2.23713
RightFoot  -3.65602 0.537568 -8.34579
RightToes  0.000482159 0.542163 -0.142577
Spine  74.5602 -5.42445 6.038
Spine1  3.09282 0.408371 -7.03862
HEad  -40.1023 -1.53421 -3.86889
LeftShoulder1  6.83058 -25.1592 -17.0048
LeftArm  -86.5614 -66.5955 35.0725
LeftForeArm  5.72064 -9.98969 0.822071
LeftHand  -0.25398 0.0180481 5.50724
RightShoulder  2.35173 13.7506 5.91343
RightArm  -72.0398 59.8337 -27.1548
RightForeArm  -16.107 2.86549 2.41741
RightHand  -3.32606 11.8442 -22.5648
LeftUpLeg  -68.2446 12.568 -16.9195
LeftLeg  36.475 3.86104 3.42918
LeftFoot  -4.97352 -0.454039 8.68237
LeftToes  1.06247e-005 4.65855e-005 -8.18501e-006
